<svg width="48" height="48" viewBox="0 0 128 128" xmlns="http://www.w3.org/2000/svg">
  <!-- Background circle for the lens -->
  <circle cx="64" cy="64" r="50" fill="#f8f9fa" stroke="#2c3e50" stroke-width="1.125"/>
  
  <!-- Magnifying glass handle -->
  <line x1="102" y1="102" x2="120" y2="120" stroke="#2c3e50" stroke-width="2" stroke-linecap="round"/>
  
  <!-- Data grid inside the lens -->
  <g clip-path="url(#lensClip)">
    <defs>
      <clipPath id="lensClip">
        <circle cx="64" cy="64" r="47"/>
      </clipPath>
    </defs>
    
    <!-- Horizontal grid lines -->
    <line x1="20" y1="35" x2="108" y2="35" stroke="#3498db" stroke-width="0.5625" opacity="0.7"/>
    <line x1="20" y1="50" x2="108" y2="50" stroke="#3498db" stroke-width="0.5625" opacity="0.7"/>
    <line x1="20" y1="65" x2="108" y2="65" stroke="#3498db" stroke-width="0.5625" opacity="0.7"/>
    <line x1="20" y1="80" x2="108" y2="80" stroke="#3498db" stroke-width="0.5625" opacity="0.7"/>
    <line x1="20" y1="95" x2="108" y2="95" stroke="#3498db" stroke-width="0.5625" opacity="0.7"/>
    
    <!-- Vertical grid lines -->
    <line x1="35" y1="20" x2="35" y2="108" stroke="#3498db" stroke-width="0.5625" opacity="0.7"/>
    <line x1="55" y1="20" x2="55" y2="108" stroke="#3498db" stroke-width="0.5625" opacity="0.7"/>
    <line x1="75" y1="20" x2="75" y2="108" stroke="#3498db" stroke-width="0.5625" opacity="0.7"/>
    <line x1="95" y1="20" x2="95" y2="108" stroke="#3498db" stroke-width="0.5625" opacity="0.7"/>
    
    <!-- Data cells with content (simplified for small sizes) -->
    
    <rect x="20" y="20" width="15" height="15" fill="#e74c3c" opacity="0.8"/>
    <rect x="35" y="20" width="20" height="15" fill="#2ecc71" opacity="0.8"/>
    <rect x="55" y="20" width="20" height="15" fill="#f39c12" opacity="0.8"/>
    <rect x="75" y="20" width="20" height="15" fill="#9b59b6" opacity="0.8"/>
    
    
    <!-- Sample data points -->
    
    <circle cx="42" cy="42" r="1" fill="#e74c3c"/>
    <circle cx="65" cy="42" r="1" fill="#2ecc71"/>
    <circle cx="85" cy="42" r="1" fill="#f39c12"/>
    <circle cx="42" cy="57" r="1" fill="#3498db"/>
    <circle cx="65" cy="57" r="1" fill="#e74c3c"/>
    <circle cx="85" cy="57" r="1" fill="#2ecc71"/>
    
  </g>
  
  <!-- Lens highlight for 3D effect -->
  <ellipse cx="50" cy="50" rx="8" ry="12" fill="rgba(255, 255, 255, 0.3)" transform="rotate(-30 50 50)"/>
</svg>